<svg width="100%" height="144" viewBox="0 0 1785 144" fill="none" xmlns="http://www.w3.org/2000/svg">
                <path d="M58.8512 143.489C96.1885 143.489 114.235 124.406 114.235 99.0992C114.235 47.4493 34.7893 62.1768 34.7893 40.1892C34.7893 31.892 41.8419 26.2914 54.4951 26.2914C68.6004 26.2914 83.5353 31.0623 94.7365 41.4338L111.123 19.8611C97.4331 7.20792 79.1793 0.570175 57.1917 0.570175C24.6253 0.570175 4.71204 19.6537 4.71204 42.6784C4.71204 94.7432 84.365 77.9414 84.365 102.418C84.365 110.3 76.4827 117.768 60.3032 117.768C41.2196 117.768 26.0773 109.263 16.3281 99.0992L0.356021 121.502C13.2167 134.57 32.3002 143.489 58.8512 143.489ZM270.141 143.489C312.042 143.489 342.534 113.619 342.534 71.926C342.534 30.2326 312.042 0.362748 270.141 0.362748C228.448 0.362748 197.955 30.2326 197.955 71.926C197.955 113.619 228.448 143.489 270.141 143.489ZM270.141 117.353C244.627 117.353 228.24 97.6472 228.24 71.926C228.24 45.9973 244.627 26.4989 270.141 26.4989C295.655 26.4989 312.249 45.9973 312.249 71.926C312.249 97.6472 295.655 117.353 270.141 117.353ZM463.185 141V83.7494H530.185V57.8207H463.185V28.5732H531.637V2.64447H433.73V141H463.185ZM684.365 141V28.5732H724.606V2.64447H614.254V28.5732H654.702V141H684.365ZM861.758 143.489C899.095 143.489 917.141 124.406 917.141 99.0992C917.141 47.4493 837.696 62.1768 837.696 40.1892C837.696 31.892 844.748 26.2914 857.402 26.2914C871.507 26.2914 886.442 31.0623 897.643 41.4338L914.03 19.8611C900.339 7.20792 882.086 0.570175 860.098 0.570175C827.532 0.570175 807.618 19.6537 807.618 42.6784C807.618 94.7432 887.271 77.9414 887.271 102.418C887.271 110.3 879.389 117.768 863.21 117.768C844.126 117.768 828.984 109.263 819.234 99.0992L803.262 121.502C816.123 134.57 835.207 143.489 861.758 143.489ZM1157.47 141V2.64447H1115.99L1082.38 86.2386L1048.78 2.64447H1007.5V141H1036.95V44.1304L1075.95 141H1088.81L1127.81 44.1304V141H1157.47ZM1321.02 143.489C1362.92 143.489 1393.42 113.619 1393.42 71.926C1393.42 30.2326 1362.92 0.362748 1321.02 0.362748C1279.33 0.362748 1248.84 30.2326 1248.84 71.926C1248.84 113.619 1279.33 143.489 1321.02 143.489ZM1321.02 117.353C1295.51 117.353 1279.12 97.6472 1279.12 71.926C1279.12 45.9973 1295.51 26.4989 1321.02 26.4989C1346.54 26.4989 1363.13 45.9973 1363.13 71.926C1363.13 97.6472 1346.54 117.353 1321.02 117.353ZM1603.05 141L1544.35 67.5699L1599.32 2.64447H1563.02L1514.07 64.4585V2.64447H1484.61V141H1514.07V98.4769L1524.85 85.6163L1566.75 141H1603.05ZM1784.92 141V115.071H1716.46V83.7494H1783.46V57.8207H1716.46V28.5732H1784.92V2.64447H1687.01V141H1784.92Z" fill="#222831" fill-opacity="0.03"/>
            </svg>