<svg width="23" height="30" viewBox="0 0 23 30" fill="none" xmlns="http://www.w3.org/2000/svg">
<path d="M10.499 13.6159C10.499 13.6159 10.9844 14.4693 10.7327 16.1762H11.1403H12.357H12.7645C12.5128 14.4693 12.9983 13.6159 12.9983 13.6159C14.1431 12.644 13.268 11.5535 13.0462 11.3105V11.2572H10.499C10.499 11.2631 9.20435 12.5136 10.499 13.6159Z" fill="white"/>
<path d="M14.3709 23.8746C12.6927 22.8138 12.6747 16.4132 12.6747 16.4132H12.4409H11.0564H10.8227C10.8227 16.4132 10.8047 22.8138 9.1265 23.8746C8.05964 24.5502 3.3367 27.0038 10.3312 28.7521C10.5889 28.8173 10.9186 28.8943 11.2842 28.9299C11.3561 28.9358 11.434 28.9417 11.5119 28.9476C11.5299 28.9476 11.5539 28.9476 11.5719 28.9536C11.6318 28.9536 11.6917 28.9536 11.7517 28.9595C11.8116 28.9595 11.8716 28.9595 11.9315 28.9536C11.9495 28.9536 11.9734 28.9536 11.9914 28.9476C12.0693 28.9417 12.1413 28.9358 12.2192 28.9299C12.5848 28.8884 12.9144 28.8173 13.1722 28.7521C20.1607 27.0038 15.4377 24.5502 14.3709 23.8746Z" fill="white"/>
<path d="M8.7729 29.0425C7.8319 29.3566 6.54328 28.7758 6.54328 28.7758H6.20764V29.6292H6.54328C7.13065 29.1551 8.7729 29.4277 8.7729 29.4277H8.90475V29.0366H8.7729V29.0425Z" fill="white"/>
<path d="M3.89411 28.7758C3.84616 28.8232 3.82218 28.9121 3.8042 29.007C1.76639 29.1492 1.0951 28.6277 1.04116 28.5862C0.939271 28.4677 0.963245 28.4084 0.975233 28.3847C1.2869 27.6498 5.35654 27.1224 8.74291 26.8735V26.4764C5.87798 26.6838 1.05315 27.1757 0.603631 28.2306C0.543695 28.3728 0.513727 28.598 0.75347 28.8647C0.783438 28.8944 1.34683 29.4277 3.13292 29.4277C3.3367 29.4277 3.56446 29.4159 3.79821 29.404C3.79821 29.4159 3.79821 29.4277 3.79821 29.4396C3.81619 29.5226 3.84616 29.5937 3.88811 29.6352C4.24773 29.9908 5.75212 29.7181 6.11173 29.6529V28.764C5.75212 28.6929 4.24773 28.4262 3.89411 28.7758Z" fill="white"/>
<path d="M19.0878 10.955C17.6314 9.98899 16.1689 10.1549 15.6055 10.2735H15.5995C15.2999 9.99491 14.8324 10.0127 14.5507 10.309C14.281 10.5935 14.287 11.032 14.5567 11.3106C14.5027 11.2928 14.4428 11.2869 14.3829 11.2928C14.1371 11.3106 13.9513 11.5002 13.9633 11.7195C13.9633 11.7373 13.9693 11.761 13.9753 11.7788C13.9094 11.7432 13.8314 11.7254 13.7475 11.7314C13.5198 11.7491 13.352 11.9388 13.3699 12.1581L13.3579 12.1521L12.5548 12.8574L12.6088 13.533L13.7236 12.5492L13.6876 12.5136C13.7296 12.5255 13.7655 12.5255 13.8075 12.5255C14.0352 12.5077 14.203 12.3181 14.1851 12.0988C14.1851 12.0751 14.1791 12.0455 14.1731 12.0277C14.251 12.0692 14.3409 12.0869 14.4428 12.081C14.6885 12.0632 14.8743 11.8736 14.8563 11.6543C14.8563 11.6306 14.8503 11.6069 14.8384 11.5773C15.138 11.8321 15.5876 11.8143 15.8633 11.5239C16.103 11.2691 16.121 10.8898 15.9352 10.6172C16.5585 10.5342 17.7153 10.5283 18.8601 11.2869C20.6761 12.4899 21.749 15.0976 22.0486 19.0268C22.0486 19.0446 22.1086 20.8522 20.5502 22.3871C19.1058 23.8094 16.7803 24.5325 13.6456 24.5562L13.6756 24.9533C14.1071 24.9533 14.5327 24.9355 14.9343 24.9058C17.5355 24.7103 19.5134 23.9576 20.8259 22.6656C22.5042 21.0122 22.4382 19.092 22.4382 19.009C22.1385 14.9376 21.0058 12.2351 19.0878 10.955Z" fill="white"/>
<path d="M12.1412 3.25062L11.9075 2.48611C12.6627 2.24905 13.4418 1.53195 13.4418 0.708172V0.666687H9.70785V0.714099C9.70785 1.53787 10.523 2.25497 11.2782 2.49203L11.0085 3.25654H7.25647C7.25647 3.66547 7.59211 3.99142 7.99967 3.99142L11.0324 4.14551L10.1514 5.65675C9.4681 6.02419 9.01858 6.64054 9.01858 7.34579C9.01858 8.2229 9.72583 8.96963 10.7088 9.2541L10.487 10.8602H13.0283L12.7646 9.1415C13.5857 8.80369 14.1431 8.12215 14.1431 7.33986C14.1431 6.67017 13.7295 6.07753 13.1002 5.70416L12.0753 4.22848L15.162 3.9855C15.5756 3.9855 15.9052 3.65361 15.9052 3.25062H12.1412Z" fill="white"/>
</svg>
