<svg width="196" height="26" viewBox="0 0 196 26" fill="none" xmlns="http://www.w3.org/2000/svg">
<path d="M194.182 20.1818V21C194.182 22.6569 192.839 24 191.182 24H180C178.343 24 177 22.6569 177 21V20.1818" stroke="#030303" stroke-width="2" stroke-linecap="round" stroke-linejoin="round"/>
<path d="M194.182 16.3636V7.77274H177V16.3636" stroke="#030303" stroke-width="2" stroke-linecap="round" stroke-linejoin="round"/>
<path d="M181.782 7.77273C181.782 7.77273 181.586 3 185.591 3C189.595 3 189.4 7.77273 189.4 7.77273" stroke="#030303" stroke-width="2" stroke-linecap="round" stroke-linejoin="round"/>
<path d="M63.467 18.6676C67.0386 20.7297 71.6056 19.506 73.6676 15.9344C75.7297 12.3628 74.506 7.79577 70.9344 5.7337C67.3628 3.67164 62.7958 4.89536 60.7337 8.46697C59.8525 9.99322 59.5714 11.7013 59.817 13.3179C59.9626 14.2759 60.2932 15.2018 60.7935 16.0387" stroke="#030303" stroke-width="2" stroke-linecap="round" stroke-linejoin="round"/>
<path d="M72.7025 17.9117L78.7371 23.9462" stroke="#030303" stroke-width="2" stroke-linecap="round" stroke-linejoin="round"/>
<path d="M129 7.5C127.667 5.44444 126 4 123.5 4C121 4 118 6.18175 118 9.25C118 12.3182 118.829 13.0712 119.529 14.5" stroke="#030303" stroke-width="2" stroke-linecap="round" stroke-linejoin="round"/>
<path d="M129 7.5C130.333 5.44444 132 4 134.5 4C137 4 140 6.18175 140 9.25C140 12.3182 139.171 13.0712 138.471 14.5" stroke="#030303" stroke-width="2" stroke-linecap="round" stroke-linejoin="round"/>
<path d="M136 18C133 21 129 24 129 24C129 24 125 21 122 18" stroke="#030303" stroke-width="2" stroke-linecap="round" stroke-linejoin="round"/>
<path d="M1 21.9941V21.9941C1.64871 23.2916 2.97476 24.1111 4.42531 24.1111H16.6273C18.0779 24.1111 19.4039 23.2916 20.0526 21.9941V21.9941" stroke="#030303" stroke-width="2" stroke-linecap="round" stroke-linejoin="round"/>
<path d="M2.05847 17.7602C2.05847 17.7602 5.93963 13.5263 10.5263 13.5263C15.113 13.5263 18.9941 17.7602 18.9941 17.7602" stroke="#030303" stroke-width="2" stroke-linecap="round" stroke-linejoin="round"/>
<path fill-rule="evenodd" clip-rule="evenodd" d="M10.5263 12.4678C12.8646 12.4678 14.7602 10.5722 14.7602 8.23392C14.7602 5.89559 12.8646 4 10.5263 4C8.18795 4 6.29236 5.89559 6.29236 8.23392C6.29236 10.5722 8.18795 12.4678 10.5263 12.4678Z" stroke="#030303" stroke-width="2" stroke-linecap="round" stroke-linejoin="round"/>
</svg>
