<svg width="232" height="28" viewBox="0 0 232 28" fill="none" xmlns="http://www.w3.org/2000/svg">

    <g>
        <path id="Vector" d="M46.1125 11.5148H45.3503L45.4592 16.6886C45.9219 16.7153 46.2758 16.7686 46.5208 16.8219C46.9836 16.9286 47.283 17.2753 47.3374 17.8354C47.1469 18.5288 46.7658 18.9288 46.2486 19.0088C45.7042 19.0888 44.942 19.1155 43.9076 19.1155H32.0392L31.522 24.316H43.9893C46.6297 24.2893 48.508 23.7559 49.624 22.7958C50.7673 21.8091 51.5023 20.2889 51.8289 18.2354C52.0467 16.1819 51.6928 14.5817 50.7945 13.435C49.9235 12.2615 48.3446 11.6214 46.1125 11.5148Z" fill="#2C313D"/>
        <path id="Vector_2" d="M125.87 16.6353H126.687V11.4881C126.251 11.4615 125.925 11.4348 125.653 11.3814C125.217 11.3014 124.945 10.9281 124.863 10.288C125.19 9.75463 125.544 9.46127 125.952 9.40793C126.36 9.32792 126.959 9.30125 127.749 9.30125H139.181L139.699 4.04742H127.504C124.972 4.1541 123.121 4.68748 121.95 5.64757C120.78 6.60766 119.991 8.12781 119.609 10.2347C119.392 12.2349 119.8 13.835 120.78 14.9551C121.787 16.0752 123.475 16.6353 125.87 16.6353Z" fill="#2C313D"/>
        <path id="Vector_3" d="M127.776 14.1817C127.776 15.9152 128.429 16.7686 129.763 16.7153C130.988 16.7153 131.587 15.8619 131.587 14.1284C131.587 12.3949 130.961 11.5415 129.681 11.5681C128.402 11.5948 127.776 12.4749 127.776 14.1817Z" fill="#2C313D"/>
        <path id="Vector_4" d="M38.7357 16.6353H39.6068V11.4881C39.144 11.4615 38.7901 11.4348 38.5179 11.3814C38.0824 11.3014 37.8102 10.9281 37.7285 10.288C38.0552 9.75463 38.409 9.46127 38.8173 9.40793C39.2257 9.32792 39.8245 9.30125 40.6139 9.30125H52.0468L52.564 4.04742H40.3689C37.8374 4.1541 35.9863 4.68748 34.8158 5.64757C33.6453 6.60766 32.8559 8.12781 32.4748 10.2347C32.2571 12.2349 32.6654 13.835 33.6453 14.9551C34.6525 16.0752 36.3402 16.6353 38.7357 16.6353Z" fill="#2C313D"/>
        <path id="Vector_5" d="M40.3417 14.1817C40.3417 15.9152 40.995 16.7686 42.3288 16.7153C43.5538 16.7153 44.1526 15.8619 44.1526 14.1284C44.1526 12.3949 43.5265 11.5415 42.2472 11.5681C40.9678 11.5948 40.3417 12.4749 40.3417 14.1817Z" fill="#2C313D"/>
        <path id="Vector_6" d="M75.1574 11.5681L73.8781 24.2626H80.0845L80.9011 16.3152L95.6005 16.3419L96.0905 11.4614L81.3094 11.4881L81.4183 10.4214C81.8811 9.40792 82.6705 8.90121 83.7321 8.95455H96.3627L96.8527 4.02075L82.6433 3.99408C78.1245 4.20743 75.6202 6.741 75.1574 11.5681Z" fill="#2C313D"/>
        <path id="Vector_7" d="M218.449 8.95452L230.971 8.92785L231.461 4.02072H217.306C212.787 4.23407 210.201 7.59439 209.575 14.1017C208.949 20.6089 210.691 23.9693 214.856 24.2093H229.392L229.937 18.9555L216.707 18.9821C216.027 18.9021 215.673 18.3954 215.646 17.4353L215.618 16.2885L230.209 16.3419L230.726 11.4881L216.027 11.4614L216.517 9.72792C216.762 9.16787 217.388 8.92785 218.449 8.95452Z" fill="#2C313D"/>
        <path id="Vector_8" d="M202.77 13.0616L210.501 3.88739H202.362L196.21 10.528C195.284 11.3548 194.74 12.3949 194.576 13.6483L195.556 3.91406H188.806L186.737 24.1826H193.488L194.522 14.1017C194.413 15.2751 194.713 16.3152 195.448 17.2753L200.293 24.1826H208.514L202.634 15.2751C202.09 14.5017 202.144 13.7817 202.77 13.0616Z" fill="#2C313D"/>
        <path id="Vector_9" d="M181.102 3.72738L173.072 3.70071C168.444 3.72738 165.804 7.24771 165.123 14.2084C164.388 21.089 166.212 24.5293 170.567 24.5027H180.367C184.614 24.4227 186.873 20.849 187.2 13.8083C187.962 6.98102 185.92 3.62071 181.102 3.72738ZM181.429 13.8617C181.238 15.9685 180.912 17.2753 180.422 17.8087C180.04 18.5821 179.333 19.0088 178.353 19.1155L172.582 19.1422C171.656 18.9821 171.057 18.4221 170.758 17.4887C170.567 17.1153 170.595 15.9952 170.785 14.1817C171.003 12.3415 171.275 11.1681 171.629 10.6614C172.174 9.54126 173.072 8.92787 174.378 8.82119H178.843C179.823 8.9012 180.53 9.2479 180.993 9.86129C181.456 10.4213 181.619 11.7548 181.429 13.8617Z" fill="#2C313D"/>
        <path id="Vector_10" d="M137.957 13.4083C137.058 12.2615 135.479 11.6215 133.247 11.4881H132.404V16.6619C132.948 16.6886 133.356 16.742 133.656 16.7953C134.118 16.902 134.418 17.2487 134.472 17.8087C134.282 18.5021 133.901 18.9022 133.383 18.9822C132.839 19.0622 132.077 19.0888 131.042 19.0888H119.174L118.657 24.2893H131.124C133.765 24.2627 135.643 23.7293 136.759 22.7692C137.902 21.7824 138.637 20.2623 138.964 18.2088C139.182 16.1552 138.855 14.5551 137.957 13.4083Z" fill="#2C313D"/>
        <path id="Vector_11" d="M104.093 16.5286L104.828 9.67458L115.39 9.70125L115.962 3.96738H97.4787L96.9071 9.67458L98.5948 9.64791L97.8598 16.6619C97.3154 21.489 99.3026 24.0226 103.794 24.2359H118.003L118.548 18.5554L105.999 18.5287C104.72 18.4221 104.093 17.7553 104.093 16.5286Z" fill="#2C313D"/>
        <path id="Vector_12" d="M159.162 4.02075L140.651 3.99408L138.555 24.316H144.245L145.715 9.75462L150.179 9.78129L148.709 24.316L153.935 24.2893L155.433 9.83463L158.209 9.80796C159.407 9.78129 159.842 10.5014 159.543 12.0215L158.318 24.2893H163.544L164.96 10.4214C165.178 6.04761 163.245 3.91407 159.162 4.02075Z" fill="#2C313D"/>
        <path id="Vector_13" d="M68.0801 3.72738L60.0499 3.70071C55.4223 3.72738 52.7818 7.24771 52.1013 14.2084C51.3663 21.089 53.1901 24.5293 57.5455 24.5027H67.3451C71.5916 24.4227 73.851 20.849 74.1776 13.8083C74.9398 6.98102 72.9254 3.62071 68.0801 3.72738ZM68.4067 13.8617C68.2162 15.9685 67.8895 17.2753 67.3996 17.8087C67.0185 18.5821 66.3107 19.0088 65.3307 19.1155L59.5599 19.1422C58.6344 18.9821 58.0355 18.4221 57.7361 17.4887C57.5455 17.1153 57.5727 15.9952 57.7633 14.1817C57.981 12.3415 58.2533 11.1681 58.6071 10.6614C59.1516 9.54126 60.0499 8.92787 61.3565 8.82119H65.8207C66.8007 8.9012 67.5084 9.2479 67.9712 9.86129C68.4612 10.4213 68.5973 11.7548 68.4067 13.8617Z" fill="#2C313D"/>
        <path id="Vector_14" d="M23.4102 0.873749H2.93987C1.1705 0.873749 -0.299438 2.28721 -0.299438 4.04738V24.0759C-0.299438 25.8361 1.14328 27.2496 2.93987 27.2496H23.4102C25.2068 27.2496 26.6495 25.8361 26.6495 24.0759V4.04738C26.6222 2.28721 25.1795 0.873749 23.4102 0.873749ZM24.5807 4.31407V23.7826C24.5807 24.5826 23.9274 25.2227 23.1107 25.2227H3.23931C2.42267 25.2227 1.76937 24.5826 1.76937 23.7826V4.31407C1.76937 3.514 2.42267 2.87394 3.23931 2.87394H23.1107C23.9274 2.87394 24.5807 3.514 24.5807 4.31407Z" fill="#2C313D"/>
        <path id="Vector_15" d="M5.93413 14.6884C7.1863 15.5685 8.46569 16.0219 9.74508 16.0219C9.79952 16.0219 9.82675 16.0219 9.88119 16.0219H10.0717V12.1548H9.88119C8.95567 12.1548 8.35681 11.9148 8.13904 11.4348C8.03015 11.2214 7.97571 10.928 7.97571 10.5813C7.97571 10.1546 8.03015 9.86128 8.16626 9.67459C8.30236 9.48791 8.57458 9.35456 8.95567 9.22122C9.47287 9.0612 10.2623 8.95453 11.3511 8.87452H20.6335C21.1507 8.87452 21.559 8.74117 21.8313 8.47448C22.1579 8.15445 22.3485 7.64774 22.3485 6.95434C22.3485 6.28761 22.1851 5.7809 21.8313 5.46087C21.5318 5.16751 21.0691 5.03416 20.4974 5.06083L11.3783 5.0875C8.2207 5.0875 6.04301 5.91424 4.8725 7.54106C4.30086 8.36781 4.00143 9.38123 4.00143 10.5813C3.97421 12.3682 4.62751 13.755 5.93413 14.6884Z" fill="#2C313D"/>
        <path id="Vector_16" d="M11.1062 14.1017C11.1062 14.7151 11.2695 15.1951 11.6234 15.5151C11.9501 15.8352 12.4673 15.9952 13.1206 15.9952C13.1478 15.9952 13.175 15.9952 13.2022 15.9952C14.4816 15.9952 15.1622 15.3285 15.1622 14.0483C15.1622 13.4083 14.9988 12.9282 14.6449 12.6082C14.2911 12.2882 13.7739 12.1015 13.1206 12.1282C11.7867 12.1548 11.1062 12.8216 11.1062 14.1017Z" fill="#2C313D"/>
        <path id="Vector_17" d="M20.4158 13.4616C19.1364 12.5549 17.8026 12.1015 16.496 12.1282H16.3054V15.9952H16.496C17.4215 15.9952 18.0203 16.2352 18.2381 16.7153C18.347 16.9286 18.4014 17.222 18.4014 17.5687C18.4014 17.9954 18.347 18.2887 18.2109 18.4754C18.0748 18.6621 17.8026 18.7955 17.4215 18.9288C16.9043 19.0888 16.0876 19.1688 14.9716 19.1421H5.71639C4.92698 19.1421 3.97424 19.5155 3.97424 21.1157C3.97424 21.7824 4.13757 22.2891 4.49144 22.6091C4.79088 22.9025 5.22641 23.0625 5.79806 23.0625C5.82528 23.0625 5.82528 23.0625 5.8525 23.0625H14.9444C18.1564 23.0625 20.3614 22.2358 21.5319 20.609C22.1035 19.7822 22.4029 18.7688 22.4029 17.5687C22.3757 15.7818 21.7224 14.395 20.4158 13.4616Z" fill="#2C313D"/>
    </g>

</svg>